<svg version="1.0" xmlns="http://www.w3.org/2000/svg" width="32" height="32" viewBox="0 0 80 34" preserveAspectRatio="xMidYMid meet">
<g transform="translate(0,34) scale(0.05,-0.05)" fill="white" stroke="none">
<path d="M803 608 c-33 -40 -69 -111 -81 -158 -24 -95 -144 -166 -317 -185
-136 -16 -236 85 -181 183 11 19 11 32 0 32 -52 0 -83 -187 -43 -261 142 -267
739 39 739 379 0 104 -36 107 -117 10z m97 21 c0 -63 -58 -165 -117 -207 l-61
-44 22 66 c47 136 156 266 156 185z"/>
<path d="M1239 310 c-103 -54 -285 -76 -363 -44 -69 29 -116 17 -116 -30 0
-44 135 -96 247 -96 124 0 373 57 373 85 0 10 9 12 20 5 36 -23 21 23 -21 61
-52 47 -79 51 -140 19z"/>
</g>
</svg>
